<svg width="40" height="40" viewBox="0 0 40 40" fill="none" xmlns="http://www.w3.org/2000/svg">
  <!-- Wine Glass Shape -->
  <path d="M20 38C22.2091 38 24 36.2091 24 34V28H16V34C16 36.2091 17.7909 38 20 38Z" fill="#8B0000"/>
  
  <!-- Wine in Glass -->
  <path d="M23 28V32C23 33.1046 22.1046 34 21 34H19C17.8954 34 17 33.1046 17 32V28H23Z" fill="#DC143C"/>
  
  <!-- Glass Bowl -->
  <path d="M12 2C12 2 12 12 20 16C28 12 28 2 28 2H12Z" fill="none" stroke="#FFD700" stroke-width="2"/>
  
  <!-- Wine in Bowl -->
  <ellipse cx="20" cy="10" rx="6" ry="4" fill="#8B0000" opacity="0.8"/>
  
  <!-- Stem -->
  <rect x="19" y="16" width="2" height="12" fill="#FFD700"/>
  
  <!-- Base -->
  <ellipse cx="20" cy="30" rx="4" ry="1" fill="#FFD700"/>
  
  <!-- Grape Accent -->
  <circle cx="14" cy="6" r="1.5" fill="#6B0080"/>
  <circle cx="26" cy="6" r="1.5" fill="#6B0080"/>
  <circle cx="13" cy="8" r="1" fill="#6B0080"/>
  <circle cx="27" cy="8" r="1" fill="#6B0080"/>
</svg> 