<svg width="32" height="32" viewBox="0 0 32 32" fill="none" xmlns="http://www.w3.org/2000/svg">
  <!-- Wine Glass Shape -->
  <path d="M16 30C17.6569 30 19 28.6569 19 27V22H13V27C13 28.6569 14.3431 30 16 30Z" fill="#8B0000"/>
  
  <!-- Wine in Glass -->
  <path d="M18 22V25C18 25.5523 17.5523 26 17 26H15C14.4477 26 14 25.5523 14 25V22H18Z" fill="#DC143C"/>
  
  <!-- Glass Bowl -->
  <path d="M10 2C10 2 10 10 16 13C22 10 22 2 22 2H10Z" fill="none" stroke="#FFD700" stroke-width="1.5"/>
  
  <!-- Wine in Bowl -->
  <ellipse cx="16" cy="8" rx="4" ry="3" fill="#8B0000" opacity="0.8"/>
  
  <!-- Stem -->
  <rect x="15" y="13" width="2" height="9" fill="#FFD700"/>
  
  <!-- Base -->
  <ellipse cx="16" cy="23" rx="3" ry="1" fill="#FFD700"/>
  
  <!-- Grape Accents -->
  <circle cx="12" cy="5" r="1" fill="#6B0080"/>
  <circle cx="20" cy="5" r="1" fill="#6B0080"/>
</svg> 