<svg width="300" height="600" viewBox="0 0 300 600" fill="none" xmlns="http://www.w3.org/2000/svg">
  <!-- Bottle Shadow -->
  <ellipse cx="155" cy="590" rx="25" ry="8" fill="rgba(0,0,0,0.1)"/>
  
  <!-- Bottle Body -->
  <path d="M120 150 L120 550 Q120 570 140 570 L160 570 Q180 570 180 550 L180 150 Z" fill="#2A4A2A" stroke="#1A3A1A" stroke-width="1"/>
  
  <!-- Wine Inside Bottle -->
  <path d="M125 200 L125 545 Q125 560 140 560 L160 560 Q175 560 175 545 L175 200 Z" fill="#5A1E1B" opacity="0.9"/>
  
  <!-- Bottle Neck -->
  <rect x="140" y="80" width="20" height="70" fill="#2A4A2A" stroke="#1A3A1A" stroke-width="1"/>
  
  <!-- Cork -->
  <rect x="138" y="70" width="24" height="15" fill="#8B4513" stroke="#654321" stroke-width="1"/>
  
  <!-- Foil -->
  <rect x="136" y="65" width="28" height="20" fill="#FFD700" stroke="#E6C200" stroke-width="1"/>
  
  <!-- Label Background -->
  <rect x="125" y="250" width="50" height="80" fill="#F9F7F1" stroke="#E0E0E0" stroke-width="1" rx="3"/>
  
  <!-- Label Text Lines -->
  <rect x="130" y="260" width="40" height="2" fill="#5A1E1B"/>
  <rect x="130" y="270" width="35" height="1" fill="#8B2E2A"/>
  <rect x="130" y="280" width="30" height="1" fill="#8B2E2A"/>
  <rect x="130" y="290" width="25" height="1" fill="#8B2E2A"/>
  
  <!-- Vintage Year -->
  <text x="150" y="315" font-family="serif" font-size="12" fill="#5A1E1B" text-anchor="middle" font-weight="bold">2018</text>
  
  <!-- Light Reflection -->
  <path d="M130 150 L135 150 L135 500 L130 500 Z" fill="rgba(255,255,255,0.2)"/>
  
  <!-- Wine Glass Icon on Label -->
  <g transform="translate(145,295) scale(0.3)">
    <path d="M10 20C11.1046 20 12 19.1046 12 18V14H8V18C8 19.1046 8.89543 20 10 20Z" fill="#5A1E1B"/>
    <path d="M6 2C6 2 6 8 10 10C14 8 14 2 14 2H6Z" fill="none" stroke="#5A1E1B" stroke-width="1"/>
    <rect x="9" y="10" width="2" height="4" fill="#5A1E1B"/>
  </g>
</svg> 